<?xml version="1.0" standalone="no"?>
<!DOCTYPE svg PUBLIC "-//W3C//DTD SVG 20010904//EN"
 "http://www.w3.org/TR/2001/REC-SVG-20010904/DTD/svg10.dtd">
<svg version="1.0" xmlns="http://www.w3.org/2000/svg"
 width="100%" height="100%" viewBox="0 0 600.000000 400.000000"
 preserveAspectRatio="xMidYMid meet">
<g transform="translate(0.000000,400.000000) scale(0.050000,-0.050000)"
fill="#C86B53" stroke="none">
<path d="M5760 7618 c-2142 -150 -2992 -2894 -1311 -4230 1533 -1219 3763
-296 3954 1636 127 1279 -874 2494 -2131 2587 -78 6 -178 13 -222 16 -44 3
-174 -1 -290 -9z m800 -168 c1069 -277 1726 -1118 1728 -2210 2 -1823 -1982
-2906 -3553 -1940 l-65 41 410 -14 c593 -19 720 6 720 144 0 154 -91 209 -346
209 l-184 1 126 68 c153 82 245 149 366 266 l93 88 85 -250 c163 -479 232
-559 490 -570 159 -7 171 -4 220 45 28 29 63 52 76 52 127 0 153 168 43 272
l-71 67 66 41 c58 35 101 40 343 40 338 0 359 8 583 229 309 305 442 782 194
695 -34 -12 -70 -13 -86 -2 -51 32 -119 19 -170 -32 -28 -28 -81 -63 -119 -79
-46 -19 -91 -64 -131 -129 -72 -115 -129 -133 -325 -105 -203 29 -328 -9 -465
-140 l-82 -79 -12 218 -13 218 69 129 c144 272 156 458 49 780 -121 365 -78
501 184 588 393 129 477 218 477 505 0 197 -4 200 -292 208 l-241 6 -104 93
c-372 335 -938 221 -1142 -228 -128 -283 -137 -453 -28 -525 119 -78 2 -273
-434 -720 -667 -684 -773 -879 -756 -1391 8 -237 5 -242 -96 -181 -183 112
-406 594 -478 1033 -264 1611 1266 2975 2871 2559z m-150 -505 c44 -22 102
-65 130 -94 101 -109 177 -140 342 -140 148 -1 154 -3 173 -55 13 -33 42 -59
75 -68 49 -12 52 -19 41 -86 -28 -158 -138 -238 -351 -256 -127 -11 -142 -16
-133 -49 7 -28 -7 -45 -54 -65 -203 -87 -243 -329 -114 -692 94 -266 70 -485
-83 -739 -91 -150 -125 -154 -75 -8 64 185 74 327 24 327 -42 0 -64 -47 -65
-140 0 -27 -28 -126 -61 -220 -65 -183 -65 -183 -17 -610 45 -390 88 -493 223
-534 78 -23 154 -104 126 -132 -9 -8 -29 6 -46 31 -43 65 -93 60 -76 -8 13
-53 13 -53 -82 -40 -164 23 -210 90 -379 553 -58 160 -138 372 -176 472 -39
100 -78 239 -86 310 -12 97 -24 129 -50 134 -86 17 -63 -204 51 -487 l67 -167
-82 -78 c-200 -191 -376 -302 -291 -183 308 433 -78 950 -553 740 -161 -71
-106 -137 62 -73 522 198 696 -577 191 -848 -31 -16 -42 -38 -37 -76 l6 -54
274 -10 c291 -11 334 -27 335 -125 1 -47 -53 -45 -68 3 -18 57 -68 93 -94 67
-14 -14 -10 -36 13 -73 l35 -52 -463 0 c-503 0 -489 -4 -417 120 35 61 40 83
21 102 -33 33 -70 1 -116 -102 l-36 -81 -45 42 c-135 127 -222 413 -201 663
34 408 162 617 737 1197 348 353 429 457 476 613 l25 84 153 -79 c296 -152
447 -66 414 239 -17 157 -154 530 -199 538 -64 13 -58 -54 24 -264 180 -459
96 -587 -261 -398 -268 141 -290 188 -198 431 152 401 559 593 891 420z m1350
-2322 c0 -19 -196 -283 -210 -283 -13 0 20 81 79 199 46 90 131 145 131 84z
m180 -6 c0 -132 -245 -495 -432 -638 l-115 -89 -269 5 c-291 5 -389 -19 -472
-112 -78 -88 -101 -58 -122 157 l-12 130 96 82 c157 133 163 135 521 138 299
2 325 -1 325 -34 0 -63 -83 -95 -291 -111 -181 -14 -199 -19 -199 -55 0 -38
11 -40 180 -34 293 11 328 36 647 469 77 106 143 148 143 92z m-433 -165 c-19
-39 -47 -72 -61 -72 -31 0 -6 61 50 125 45 52 50 29 11 -53z m-1096 30 c-17
-27 28 -604 55 -713 23 -91 28 -97 128 -129 122 -40 166 -71 166 -120 0 -61
-72 -60 -141 1 -35 31 -89 62 -120 69 -104 23 -140 144 -181 596 -21 242 -21
258 15 284 41 32 95 40 78 12z m-2081 -802 c37 -71 21 -77 -44 -17 -53 51 -59
77 -17 77 17 0 44 -27 61 -60z"/>
<path d="M6481 6711 c-13 -16 -52 -31 -87 -35 -70 -7 -98 -62 -43 -84 54 -20
185 24 199 68 23 71 -24 105 -69 51z"/>
<path d="M6023 2471 c4 -94 5 -171 2 -171 -2 0 -34 18 -70 40 -274 167 -565
-199 -404 -508 75 -143 317 -203 425 -105 46 41 64 42 64 3 0 -20 20 -30 60
-30 33 0 65 0 72 0 6 0 11 209 11 465 l0 465 -83 6 -83 6 6 -171z m-80 -253
c96 -51 121 -272 38 -347 -73 -66 -172 -63 -243 7 -156 157 16 442 205 340z"/>
<path d="M6370 2593 c-35 -54 -23 -105 33 -135 91 -48 184 48 128 133 -42 64
-120 64 -161 2z"/>
<path d="M3653 2157 l4 -463 83 -2 82 -2 -6 344 c-3 189 0 338 7 330 7 -8 64
-138 127 -289 l115 -275 83 0 82 0 110 270 c61 148 115 270 122 270 6 0 11
-145 10 -323 l-2 -323 77 -2 76 -2 4 465 3 465 -115 0 c-63 0 -115 -8 -115
-18 0 -10 -57 -159 -127 -331 l-127 -313 -135 331 -136 331 -112 0 -113 0 3
-463z"/>
<path d="M6753 2450 l12 -90 -62 0 c-59 0 -63 -5 -63 -71 0 -67 4 -71 55 -65
l55 6 10 -222 c13 -279 60 -340 252 -324 74 6 78 9 84 82 6 71 4 75 -43 63
-108 -27 -133 14 -133 219 l0 187 90 -10 90 -10 0 72 0 73 -90 0 -90 0 0 90 0
90 -90 0 -89 0 12 -90z"/>
<path d="M4945 2351 c-55 -24 -145 -132 -145 -174 0 -41 163 -26 191 17 56 86
229 42 229 -59 0 -24 -32 -34 -138 -45 -222 -22 -322 -109 -294 -258 27 -144
253 -210 378 -112 42 34 54 36 68 13 9 -15 46 -32 82 -37 l67 -9 -7 276 -6
276 -64 64 c-76 77 -248 100 -361 48z m275 -398 c0 -110 -119 -183 -228 -141
-65 25 -41 144 33 166 127 36 195 28 195 -25z"/>
<path d="M7362 2346 c-58 -29 -142 -128 -142 -169 0 -41 163 -26 191 17 56 85
229 46 229 -52 0 -29 -29 -39 -164 -57 -210 -27 -288 -95 -269 -233 21 -161
244 -238 380 -131 44 35 53 37 53 10 0 -23 21 -31 80 -31 l80 0 0 241 c0 387
-165 539 -438 405z m278 -393 c0 -122 -167 -203 -249 -122 -81 82 8 163 184
167 55 2 65 -5 65 -45z"/>
<path d="M8068 2361 c-226 -92 -168 -331 93 -383 143 -28 185 -76 126 -142
-45 -49 -160 -37 -207 21 -33 43 -160 39 -160 -5 0 -90 142 -172 296 -172 281
0 361 296 102 378 -202 63 -228 75 -234 107 -17 88 188 121 210 34 15 -54 166
-58 166 -3 0 131 -232 229 -392 165z"/>
<path d="M6365 2027 l5 -334 80 0 80 0 5 334 6 333 -91 0 -91 0 6 -333z"/>
<path d="M2700 1443 c-47 -47 -60 -78 -60 -141 0 -74 -5 -82 -50 -82 -44 0
-50 -9 -50 -70 0 -62 6 -70 51 -70 l51 0 -6 -260 -6 -260 85 0 85 0 0 260 0
260 80 0 c78 0 80 2 80 70 0 68 -2 70 -80 70 -75 0 -80 3 -80 59 0 68 50 105
118 87 41 -10 44 -5 38 56 -9 100 -165 112 -256 21z"/>
<path d="M5800 1030 l0 -470 80 0 c57 0 80 8 80 30 0 24 12 22 65 -10 340
-208 611 367 287 609 -79 59 -232 57 -297 -4 -67 -63 -66 -65 -58 135 l7 180
-82 0 -82 0 0 -470z m471 -31 c102 -197 -89 -402 -249 -267 -112 93 -68 331
63 352 74 12 154 -25 186 -85z"/>
<path d="M7300 1030 l0 -470 80 0 80 0 0 470 0 470 -80 0 -80 0 0 -470z"/>
<path d="M1850 1010 l0 -450 85 0 85 0 0 169 0 170 140 -1 c229 -2 327 88 323
297 -4 195 -116 265 -423 265 l-210 0 0 -450z m443 260 c84 -116 11 -223 -158
-233 l-115 -7 0 147 0 148 123 -9 c89 -7 130 -19 150 -46z"/>
<path d="M3840 1310 c0 -83 -4 -90 -50 -90 -44 0 -50 -9 -50 -70 0 -61 6 -70
50 -70 49 0 50 -2 50 -171 0 -293 129 -433 328 -357 78 30 39 148 -48 148
-100 0 -120 40 -120 240 l0 138 95 6 c90 6 94 9 99 71 l6 65 -103 0 -102 0 12
90 12 90 -89 0 -90 0 0 -90z"/>
<path d="M3230 1219 c-230 -68 -304 -384 -134 -566 196 -209 544 -108 593 172
45 262 -198 471 -459 394z m195 -140 c141 -64 134 -321 -9 -381 -190 -78 -329
192 -178 344 63 62 111 71 187 37z"/>
<path d="M4448 1200 c-230 -114 -229 -508 2 -620 176 -85 400 -14 456 145 18
51 -114 48 -181 -5 -99 -79 -241 -38 -282 81 l-22 61 245 -3 c277 -4 277 -4
234 152 -55 196 -262 283 -452 189z m267 -146 c83 -75 60 -94 -115 -94 -175 0
-198 19 -115 94 83 75 148 75 230 0z"/>
<path d="M5320 1227 c-16 -7 -50 -31 -75 -53 l-45 -41 0 44 c0 37 -11 43 -80
43 l-80 0 0 -330 0 -330 80 0 80 0 0 191 c0 260 29 329 139 329 124 0 145 -48
137 -309 l-6 -211 87 0 86 0 -6 270 -7 269 -62 62 c-62 62 -180 93 -248 66z"/>
<path d="M6730 1212 c-70 -31 -120 -84 -139 -147 -19 -63 125 -67 164 -5 52
82 225 35 225 -61 0 -31 -14 -39 -69 -39 -227 0 -351 -78 -351 -222 0 -166
192 -254 350 -161 60 36 73 38 83 13 7 -18 38 -30 79 -30 l68 0 0 235 c0 380
-150 532 -410 417z m250 -403 c0 -104 -128 -178 -221 -128 -57 30 -53 135 6
158 102 41 215 26 215 -30z"/>
<path d="M7750 1203 c-72 -33 -130 -106 -130 -164 0 -37 130 -20 165 21 49 57
163 54 204 -4 53 -76 39 -90 -109 -102 -166 -14 -252 -59 -281 -146 -65 -197
164 -344 354 -226 57 35 67 36 67 10 0 -24 20 -32 77 -32 l77 0 -10 255 c-14
392 -142 511 -414 388z m270 -374 c0 -136 -165 -222 -249 -130 -43 47 -25 116
36 141 77 31 213 24 213 -11z"/>
<path d="M8600 1227 c-16 -7 -50 -31 -75 -53 l-45 -41 0 44 c0 37 -11 43 -80
43 l-80 0 0 -330 0 -330 90 0 90 0 0 227 c0 258 17 293 146 293 100 0 114 -36
114 -299 l0 -221 90 0 90 0 -11 252 c-13 282 -25 332 -97 379 -54 35 -183 55
-232 36z"/>
<path d="M9221 1196 c-302 -158 -214 -625 123 -650 151 -12 336 108 336 217 0
43 -159 16 -210 -35 -100 -99 -247 -23 -263 135 -20 202 180 310 288 156 18
-26 50 -39 95 -39 86 0 95 16 56 96 -72 148 -266 203 -425 120z"/>
<path d="M9922 1196 c-308 -165 -186 -654 164 -656 128 0 294 109 294 194 0
41 -117 31 -175 -14 -101 -79 -259 -27 -295 97 l-14 47 254 -7 254 -7 -12 88
c-34 248 -259 371 -470 258z m273 -149 c70 -77 56 -87 -115 -87 -167 0 -187
13 -133 84 64 85 173 86 248 3z"/>
</g>
</svg>
